<?xml version="1.0" standalone="no"?>
<!DOCTYPE svg PUBLIC "-//W3C//DTD SVG 20010904//EN"
 "http://www.w3.org/TR/2001/REC-SVG-20010904/DTD/svg10.dtd">
<svg version="1.0" xmlns="http://www.w3.org/2000/svg"
 width="1848.000000pt" height="1848.000000pt" viewBox="0 0 1848.000000 1848.000000"
 preserveAspectRatio="xMidYMid meet">
<metadata>
Created by potrace 1.11, written by Peter Selinger 2001-2013
</metadata>
<g transform="translate(0.000000,1848.000000) scale(0.100000,-0.100000)"
fill="#000000" stroke="none">
<path d="M9005 18004 c-1013 -481 -1454 -716 -1892 -1010 -411 -276 -606 -460
-804 -758 -267 -403 -406 -960 -449 -1796 -21 -415 -41 -591 -92 -805 -57
-237 -38 -440 61 -649 57 -122 132 -227 237 -333 105 -105 326 -256 837 -573
163 -102 297 -187 297 -190 0 -3 -92 -36 -204 -73 -374 -126 -529 -198 -568
-265 -41 -69 -14 -153 90 -283 151 -189 208 -231 543 -403 l182 -94 -150 -76
c-246 -124 -361 -207 -406 -291 -34 -62 -29 -173 11 -296 18 -53 32 -102 32
-110 0 -8 -37 -57 -81 -109 -44 -52 -94 -117 -111 -145 l-30 -50 6 -335 c3
-184 13 -519 21 -745 9 -225 20 -621 25 -880 9 -503 16 -578 66 -737 37 -116
75 -197 138 -292 64 -96 188 -218 284 -280 172 -111 502 -252 824 -353 l186
-58 -3824 -3 -3824 -2 0 -1605 0 -1605 8715 0 8715 0 0 1605 0 1605 -779 0
-779 0 19 55 c65 186 -26 423 -228 590 -270 222 -596 219 -731 -7 -40 -68
-116 -280 -137 -386 -10 -49 -15 -114 -13 -166 l3 -86 -1530 0 -1531 0 28 137
c63 314 80 496 223 2383 71 936 71 950 24 1061 -30 69 -110 139 -201 177 -128
53 -368 107 -524 117 -178 12 -3063 93 -3749 105 -630 12 -733 18 -796 50 -50
25 -124 92 -145 132 -12 23 -12 32 1 69 9 24 34 67 56 96 36 48 54 60 162 113
233 113 430 163 647 163 112 0 166 -8 515 -71 1028 -188 1708 -297 1983 -317
118 -9 271 -27 340 -40 339 -63 588 -59 860 16 114 32 411 146 471 182 127 75
194 237 144 345 -30 65 -121 144 -224 195 -172 85 -187 87 -739 100 -514 11
-671 8 -1385 -33 -599 -34 -1064 -70 -1475 -111 -362 -37 -532 -8 -835 146
-249 126 -405 226 -474 302 -56 62 -61 72 -59 108 3 39 4 40 53 52 253 58 611
136 700 152 351 62 572 52 1205 -55 460 -78 481 -82 620 -98 337 -41 993 -58
1710 -45 571 10 618 15 825 84 215 72 305 114 342 163 39 51 73 140 73 190 0
46 -41 100 -104 137 -73 43 -685 148 -936 161 -314 16 -2006 -99 -2830 -192
-414 -47 -668 -43 -920 12 -286 64 -451 150 -1104 583 l-284 187 15 27 c7 15
20 27 27 27 14 0 451 -55 996 -125 699 -90 1410 -138 2735 -185 864 -30 1217
-26 1934 26 384 27 395 30 454 92 l29 30 -5 349 c-5 389 -6 398 -82 618 -24
71 -51 171 -60 220 -19 113 -43 496 -55 860 -10 303 -15 351 -61 524 -73 275
-148 412 -339 620 -182 198 -801 822 -1270 1279 -385 376 -1163 1093 -1184
1091 -6 -1 -213 -97 -461 -215z m1810 -4239 c87 -23 152 -62 226 -135 157
-155 194 -383 94 -580 -58 -114 -193 -223 -319 -256 -82 -22 -210 -18 -286 9
-354 126 -458 553 -200 822 127 132 311 185 485 140z m-3440 -126 c129 -24
239 -108 298 -228 30 -61 32 -73 32 -171 0 -93 -3 -111 -27 -163 -38 -80 -117
-160 -197 -200 -61 -30 -72 -32 -171 -32 -97 0 -110 2 -171 31 -161 77 -260
259 -230 426 29 163 143 289 300 330 80 20 91 21 166 7z m3025 -1749 c118 -6
427 -24 685 -40 259 -17 553 -33 655 -37 102 -3 191 -9 198 -12 14 -8 -209
-33 -543 -61 -715 -60 -1418 -65 -2080 -14 -195 14 -646 62 -652 68 -6 6 320
55 472 71 83 9 209 20 280 24 193 12 740 12 985 1z m830 -1150 c483 -8 494 -9
615 -69 73 -36 177 -127 155 -135 -25 -9 -337 -54 -470 -68 -82 -9 -270 -13
-550 -13 -472 1 -508 3 -1330 85 -555 55 -826 76 -1107 86 l-193 7 0 33 c0 22
5 34 14 34 8 0 121 9 252 20 132 11 259 21 284 23 90 7 1896 5 2330 -3z
m-7648 -6148 c3 -759 4 -820 20 -845 26 -38 55 -50 120 -50 l58 0 0 -143 0
-143 -37 -8 c-75 -16 -224 -7 -288 17 -80 30 -154 103 -186 185 l-24 60 -3
873 -3 872 170 0 170 0 3 -818z m9098 486 l0 -332 33 31 c124 118 405 145 593
57 92 -43 210 -167 262 -274 51 -106 69 -174 83 -317 35 -337 -77 -639 -288
-779 -96 -64 -180 -88 -308 -87 -163 0 -262 38 -353 137 -23 25 -44 46 -46 46
-2 0 -7 -21 -10 -47 -4 -27 -9 -60 -12 -75 l-6 -28 -144 0 -144 0 0 1000 0
1000 170 0 170 0 0 -332z m-9970 132 l0 -160 -497 -2 -498 -3 -3 -262 -2 -263
445 0 445 0 0 -160 0 -160 -445 0 -445 0 0 -395 0 -395 -175 0 -175 0 0 980 0
980 675 0 675 0 0 -160z m6773 132 c224 -62 378 -211 432 -417 20 -78 20 -249
-1 -329 -39 -153 -147 -293 -271 -352 -34 -16 -62 -32 -62 -36 -1 -3 75 -176
169 -384 93 -208 173 -386 176 -396 5 -17 -5 -18 -186 -16 l-191 3 -162 368
-161 367 -218 0 -218 0 0 -370 0 -370 -180 0 -180 0 0 981 0 981 488 -4 c461
-4 491 -5 565 -26z m-2693 -492 l180 0 0 -140 0 -140 -180 0 -180 0 0 -369 c0
-248 4 -379 11 -402 29 -85 92 -107 267 -93 l112 9 0 -142 c0 -160 10 -143
-100 -164 -36 -7 -121 -13 -190 -13 -103 0 -135 4 -184 22 -118 43 -188 114
-228 232 -21 62 -22 83 -26 493 l-3 427 -130 0 -129 0 0 140 0 140 130 0 130
0 2 182 3 182 165 41 165 41 3 -223 2 -223 180 0z m9930 0 l180 0 0 -140 0
-140 -180 0 -180 0 0 -369 c0 -248 4 -379 11 -402 29 -85 92 -107 267 -93
l112 9 0 -142 c0 -160 10 -143 -100 -164 -36 -7 -121 -13 -190 -13 -103 0
-135 4 -184 22 -118 43 -188 114 -228 232 -21 62 -22 83 -26 493 l-3 427 -130
0 -129 0 0 140 0 140 130 0 130 0 2 182 3 182 165 41 165 41 3 -223 2 -223
180 0z m-11623 14 c189 -48 360 -199 432 -381 76 -193 76 -513 0 -706 -73
-185 -242 -333 -439 -384 -86 -22 -254 -22 -340 0 -197 51 -366 199 -439 384
-76 194 -76 513 1 707 27 69 97 173 154 228 157 150 404 210 631 152z m6140 0
c189 -48 360 -199 432 -381 76 -193 76 -513 0 -706 -73 -185 -242 -333 -439
-384 -86 -22 -254 -22 -340 0 -197 51 -366 199 -439 384 -76 194 -76 513 1
707 27 69 97 173 154 228 157 150 404 210 631 152z m3790 0 c189 -48 360 -199
432 -381 76 -193 76 -513 0 -706 -73 -185 -242 -333 -439 -384 -86 -22 -254
-22 -340 0 -197 51 -366 199 -439 384 -76 194 -76 513 1 707 27 69 97 173 154
228 157 150 404 210 631 152z"/>
<path d="M10616 13476 c-104 -39 -161 -160 -124 -267 18 -54 48 -87 102 -114
160 -80 333 51 297 225 -25 125 -157 200 -275 156z"/>
<path d="M7219 13357 c-18 -12 -44 -38 -57 -57 -20 -30 -23 -44 -20 -97 5 -75
26 -109 88 -140 56 -29 105 -29 160 0 117 62 117 241 0 302 -45 23 -130 19
-171 -8z"/>
<path d="M12900 4591 c-153 -50 -222 -170 -236 -406 -15 -241 49 -417 176
-489 50 -28 63 -31 145 -31 74 0 98 4 132 22 129 69 192 216 193 449 0 221
-66 370 -194 436 -45 23 -170 34 -216 19z"/>
<path d="M8780 4765 l0 -295 278 0 c310 0 349 6 424 63 61 47 92 114 97 209 3
66 -1 85 -24 135 -30 66 -54 95 -106 128 -76 49 -123 55 -406 55 l-263 0 0
-295z"/>
<path d="M4840 4581 c-168 -55 -240 -190 -240 -451 0 -232 56 -361 184 -428
44 -23 63 -27 136 -27 73 0 92 4 136 27 128 67 184 196 184 428 0 232 -56 362
-184 427 -54 28 -167 40 -216 24z"/>
<path d="M10980 4581 c-168 -55 -240 -190 -240 -451 0 -232 56 -361 184 -428
44 -23 63 -27 136 -27 73 0 92 4 136 27 128 67 184 196 184 428 0 232 -56 362
-184 427 -54 28 -167 40 -216 24z"/>
<path d="M14770 4581 c-168 -55 -240 -190 -240 -451 0 -232 56 -361 184 -428
44 -23 63 -27 136 -27 73 0 92 4 136 27 128 67 184 196 184 428 0 232 -56 362
-184 427 -54 28 -167 40 -216 24z"/>
<path d="M12500 17860 c-112 -24 -203 -96 -258 -207 -38 -75 -96 -248 -116
-345 -51 -247 18 -439 187 -518 164 -78 479 -60 662 38 80 43 189 157 227 238
28 58 33 83 36 156 5 102 -13 172 -65 268 -47 86 -186 224 -280 279 -126 75
-288 112 -393 91z"/>
<path d="M13814 17291 c-88 -41 -153 -122 -140 -176 16 -63 117 -135 190 -135
111 0 171 119 117 235 -38 83 -96 109 -167 76z"/>
<path d="M13485 16531 c-151 -39 -257 -204 -257 -401 -1 -134 47 -231 136
-277 76 -39 293 -19 419 39 71 33 120 79 143 134 60 144 -89 419 -261 483 -63
24 -138 33 -180 22z"/>
<path d="M1320 13150 c-112 -24 -213 -105 -264 -213 -39 -84 -103 -286 -116
-370 -38 -237 31 -411 192 -487 169 -80 494 -59 667 43 86 50 182 151 221 231
30 59 35 81 38 160 3 74 0 103 -18 156 -66 197 -259 384 -470 454 -87 29 -186
39 -250 26z"/>
<path d="M2885 12686 c-153 -71 -274 -353 -231 -540 30 -128 93 -213 191 -258
72 -33 212 -33 308 1 142 49 282 171 318 279 19 55 15 140 -9 194 -27 62 -167
206 -259 268 -123 82 -225 100 -318 56z"/>
<path d="M17034 12261 c-51 -23 -110 -75 -130 -114 -31 -59 10 -133 100 -179
50 -25 134 -21 167 8 52 46 64 141 27 214 -40 77 -97 102 -164 71z"/>
<path d="M16632 11859 c-142 -25 -254 -127 -291 -266 -57 -210 -20 -474 90
-637 106 -159 245 -235 409 -223 230 15 472 219 566 474 25 67 29 92 29 183 0
94 -3 111 -28 161 -50 102 -133 164 -316 234 -174 66 -347 94 -459 74z"/>
<path d="M2027 11490 c-167 -20 -301 -82 -403 -184 -79 -80 -123 -159 -150
-272 -24 -103 -15 -310 19 -424 116 -388 410 -656 687 -627 129 14 217 61 386
208 371 322 492 609 366 868 -32 66 -141 180 -225 235 -218 142 -486 219 -680
196z"/>
<path d="M15865 7892 c-56 -26 -97 -77 -133 -165 -75 -179 -80 -287 -19 -378
50 -75 180 -111 321 -91 101 15 171 48 229 111 111 119 93 276 -47 417 -77 76
-156 116 -246 121 -49 3 -75 -1 -105 -15z"/>
<path d="M14270 7705 c-135 -38 -209 -116 -257 -270 -14 -48 -18 -90 -17 -205
2 -211 34 -318 137 -455 156 -207 394 -246 634 -104 79 48 190 160 247 251
153 247 134 497 -47 622 -60 41 -239 116 -353 146 -105 29 -270 35 -344 15z"/>
<path d="M3790 2300 l0 -130 140 0 140 0 0 130 0 130 -140 0 -140 0 0 -130z"/>
<path d="M4570 1797 c0 -709 -1 -696 70 -767 48 -48 114 -70 209 -70 127 0
121 -6 121 121 l0 109 -50 0 c-37 0 -55 5 -70 20 -20 20 -20 33 -20 620 l0
600 -130 0 -130 0 0 -633z"/>
<path d="M6020 2200 c0 -126 -2 -230 -5 -230 -2 0 -21 11 -41 25 -62 42 -134
58 -248 53 -83 -3 -111 -8 -159 -30 -109 -51 -204 -174 -243 -318 -26 -92 -26
-321 0 -404 46 -151 132 -263 245 -319 62 -30 72 -32 176 -32 100 0 116 3 170
28 33 15 75 42 93 60 l32 31 0 -25 c1 -69 1 -69 126 -69 l114 0 0 730 0 730
-130 0 -130 0 0 -230z m-120 -390 c46 -23 85 -77 105 -143 34 -114 27 -277
-17 -378 -61 -143 -229 -173 -338 -60 -68 69 -96 194 -79 346 13 122 57 199
134 239 44 23 146 21 195 -4z"/>
<path d="M6780 2300 l0 -130 140 0 140 0 0 130 0 130 -140 0 -140 0 0 -130z"/>
<path d="M11190 2414 c-197 -52 -325 -170 -366 -338 -21 -82 -11 -173 28 -258
68 -149 190 -215 445 -243 237 -26 281 -39 322 -91 45 -58 46 -151 2 -213 -86
-121 -377 -134 -494 -23 -35 33 -63 85 -72 135 l-7 37 -136 0 -135 0 6 -61
c11 -119 94 -247 211 -325 95 -63 183 -87 333 -92 212 -7 354 35 467 139 197
180 171 516 -52 658 -75 47 -160 70 -344 92 -95 11 -190 25 -210 31 -99 29
-134 155 -69 247 12 16 47 42 79 58 50 25 68 28 152 28 86 0 101 -3 155 -30
66 -33 99 -73 118 -142 l11 -43 134 0 134 0 -4 54 c-6 77 -59 178 -127 247
-61 61 -150 110 -246 134 -76 19 -261 19 -335 -1z"/>
<path d="M17120 2200 c0 -126 -2 -230 -5 -230 -2 0 -21 11 -41 25 -62 42 -134
58 -248 53 -83 -3 -111 -8 -159 -30 -109 -51 -204 -174 -243 -318 -26 -92 -26
-321 0 -404 46 -151 132 -263 245 -319 62 -30 72 -32 176 -32 100 0 116 3 170
28 33 15 75 42 93 60 l32 31 0 -25 c1 -69 1 -69 126 -69 l114 0 0 730 0 730
-130 0 -130 0 0 -230z m-120 -390 c46 -23 85 -77 105 -143 34 -114 27 -277
-17 -378 -61 -143 -229 -173 -338 -60 -68 69 -96 194 -79 346 13 122 57 199
134 239 44 23 146 21 195 -4z"/>
<path d="M890 1684 l0 -715 383 3 c368 3 384 4 442 26 185 69 272 204 263 406
-4 74 -9 101 -31 143 -34 65 -76 114 -119 137 l-34 18 56 57 c79 78 103 144
98 266 -3 71 -9 102 -29 146 -36 75 -86 129 -157 167 -106 57 -150 62 -529 62
l-343 0 0 -716z m709 461 c60 -35 76 -67 76 -150 0 -85 -16 -116 -81 -149 -35
-19 -60 -21 -241 -24 l-203 -4 0 177 0 176 208 -3 c186 -3 211 -5 241 -23z m1
-572 c85 -37 118 -100 108 -204 -6 -61 -30 -96 -89 -129 -43 -24 -51 -25 -256
-28 l-213 -3 0 197 0 197 203 -5 c175 -4 208 -7 247 -25z"/>
<path d="M9673 2084 c-29 -14 -63 -40 -75 -57 -12 -18 -23 -34 -24 -36 -2 -1
-27 9 -58 23 -123 58 -289 51 -419 -17 -110 -57 -177 -161 -192 -294 -11 -97
23 -220 77 -279 l20 -22 -46 -45 c-44 -44 -76 -117 -76 -172 0 -42 32 -114 64
-146 l33 -32 -34 -30 c-100 -88 -106 -243 -14 -349 86 -97 217 -140 431 -139
252 0 409 67 482 204 19 35 23 58 23 137 0 84 -3 101 -27 146 -30 56 -69 94
-132 126 -72 37 -97 40 -318 47 -211 6 -217 7 -242 30 -32 30 -33 52 -3 87 23
26 24 26 78 14 33 -7 96 -11 150 -8 83 3 104 8 169 39 89 42 149 99 187 177
23 47 29 73 31 148 3 79 1 100 -21 154 l-26 62 24 24 c15 15 37 24 57 25 18 1
40 2 48 3 12 1 15 19 15 101 l0 100 -65 3 c-54 2 -74 -2 -117 -24z m-290 -235
c50 -14 103 -61 118 -106 15 -45 14 -128 -1 -168 -25 -67 -88 -108 -165 -108
-109 0 -176 72 -177 189 -1 97 39 161 118 189 48 17 59 18 107 4z m158 -920
c55 -17 80 -48 81 -99 1 -94 -71 -132 -257 -133 -129 -1 -207 16 -239 52 -41
45 -36 129 9 169 25 21 34 22 197 22 99 0 187 -5 209 -11z"/>
<path d="M7973 2035 c-61 -18 -130 -61 -155 -96 -20 -26 -23 -28 -30 -12 -3
10 -7 35 -7 56 l-1 37 -115 0 -115 0 0 -525 0 -525 130 0 130 0 0 238 c1 386
18 482 101 557 46 41 72 49 145 43 39 -3 61 -11 80 -29 53 -48 54 -60 54 -449
l0 -360 130 0 131 0 -3 413 -3 412 -29 63 c-36 77 -105 143 -182 171 -64 25
-194 28 -261 6z"/>
<path d="M12593 2036 c-143 -46 -242 -156 -294 -326 -20 -63 -24 -97 -24 -210
0 -154 11 -211 62 -319 44 -92 120 -171 200 -209 53 -25 68 -27 183 -27 109 0
131 3 175 23 27 13 60 33 72 44 l23 21 0 -231 0 -232 130 0 130 0 0 725 0 725
-114 0 c-126 0 -126 0 -126 -73 l0 -28 -34 35 c-18 20 -60 48 -92 63 -49 23
-74 28 -154 30 -59 2 -111 -3 -137 -11z m289 -235 c88 -56 133 -215 110 -389
-16 -116 -50 -184 -111 -224 -42 -27 -52 -29 -123 -26 -67 3 -81 7 -115 33
-81 65 -119 204 -102 376 17 173 93 259 230 259 55 0 72 -5 111 -29z"/>
<path d="M15368 2031 c-79 -26 -140 -64 -182 -113 -39 -45 -76 -132 -76 -178
l0 -30 124 0 124 0 6 33 c7 38 47 80 89 96 42 16 154 13 191 -4 43 -21 63 -58
71 -136 l7 -67 -28 -5 c-16 -3 -78 -9 -139 -12 -232 -14 -332 -43 -408 -119
-58 -58 -80 -109 -85 -202 -12 -228 140 -363 397 -352 110 4 180 30 248 92 44
39 53 43 53 22 0 -21 47 -74 81 -91 33 -18 142 -20 188 -4 l31 11 0 97 0 97
-35 0 c-19 0 -38 4 -42 8 -4 4 -10 141 -14 304 -5 281 -6 300 -29 357 -31 80
-105 154 -185 185 -85 33 -302 39 -387 11z m347 -658 c-17 -145 -103 -222
-250 -223 -71 0 -115 22 -141 71 -35 68 7 157 86 179 31 9 184 25 278 29 l33
1 -6 -57z"/>
<path d="M2402 1608 l3 -413 26 -56 c36 -76 86 -129 156 -165 54 -27 66 -29
173 -29 106 0 120 2 172 28 31 15 72 45 91 66 l35 39 6 -30 c3 -17 6 -41 6
-54 0 -24 1 -24 110 -24 l110 0 0 525 0 525 -130 0 -130 0 0 -318 c0 -354 -5
-393 -62 -458 -43 -49 -78 -64 -146 -64 -70 0 -117 26 -144 80 -16 31 -18 72
-18 398 l0 362 -130 0 -131 0 3 -412z"/>
<path d="M3800 1495 l0 -525 130 0 130 0 0 525 0 525 -130 0 -130 0 0 -525z"/>
<path d="M6790 1495 l0 -525 130 0 130 0 0 525 0 525 -130 0 -130 0 0 -525z"/>
<path d="M13742 1608 l3 -413 26 -56 c36 -76 86 -129 156 -165 54 -27 66 -29
173 -29 106 0 120 2 172 28 31 15 72 45 91 66 l35 39 6 -30 c3 -17 6 -41 6
-54 0 -24 1 -24 110 -24 l110 0 0 525 0 525 -130 0 -130 0 0 -318 c0 -354 -5
-393 -62 -458 -43 -49 -78 -64 -146 -64 -70 0 -117 26 -144 80 -16 31 -18 72
-18 398 l0 362 -130 0 -131 0 3 -412z"/>
</g>
</svg>
